<?xml version="1.0" encoding="UTF-8"?>
<svg id="_레이어_1" data-name="레이어_1" xmlns="http://www.w3.org/2000/svg" version="1.1" xmlns:xlink="http://www.w3.org/1999/xlink" viewBox="0 0 299.1 299.1">
  <!-- Generator: Adobe Illustrator 29.5.1, SVG Export Plug-In . SVG Version: 2.1.0 Build 141)  -->
  <defs>
    <style>
      .st0 {
        fill: #84c5ea;
      }

      .st1 {
        fill: #1b2e5d;
      }

      .st2 {
        fill: #2469ac;
      }

      .st3 {
        fill: #82c2ea;
      }

      .st4 {
        fill: #74bce1;
      }

      .st5 {
        fill: #fef8f5;
      }

      .st6 {
        fill: #fff;
      }

      .st7 {
        fill: #1b2e5c;
      }

      .st8, .st9 {
        fill: none;
      }

      .st10, .st11 {
        fill: #133464;
      }

      .st12 {
        fill: #e5dbdc;
      }

      .st9 {
        stroke: #1b2e5c;
        stroke-linecap: round;
        stroke-miterlimit: 10;
        stroke-width: 2px;
      }

      .st13 {
        fill: #4890ce;
      }

      .st14 {
        fill: #2564a1;
      }

      .st15 {
        fill: #a22643;
      }

      .st16 {
        fill: #76c3ed;
      }

      .st11 {
        font-family: Roboto-BlackItalic, Roboto;
        font-size: 81px;
        font-style: italic;
        font-weight: 800;
      }
    </style>
  </defs>
  <rect class="st12" width="299" height="299"/>
  <rect class="st15" x="74.4" y="-1557.4" width="265.5" height="267"/>
  <g>
    <rect class="st2" x="-301.3" y="-703.3" width="265.5" height="267" rx="-84.7" ry="-84.7"/>
    <g>
      <path class="st6" d="M-232.5-518.6c-1.7,0-3.4-.7-4.6-2.2-2.1-2.5-1.8-6.3.8-8.5.4-.3,9.2-7.6,23.4-7.6s10.5,1.9,13.5,4c1.8,1.3,3.1,2.2,8.4,2.2s8.6-1.3,11.5-2.8c2.9-1.5,6.4-3.4,12.3-3.4s11.1,2.3,14.7,4.1c2.6,1.3,4.2,2.1,5.9,2.1s3-.6,5.6-1.9c3.8-1.8,8.9-4.3,17.2-4.3,14.2,0,22.8,7.4,23.2,7.7,2.5,2.2,2.7,6,.6,8.5-2.2,2.5-6,2.7-8.5.6-.2-.2-5.8-4.7-15.3-4.7s-8.6,1.5-12,3.1c-3,1.4-6.4,3.1-10.8,3.1s-8.3-1.8-11.4-3.4c-2.9-1.5-5.5-2.8-9.2-2.8s-4.3.8-6.7,2c-3.6,1.9-8,4.2-17.1,4.2s-12-2.1-15.3-4.4c-1.7-1.2-2.7-1.9-6.6-1.9-9.6,0-15.5,4.7-15.7,4.9-1.1.9-2.5,1.4-3.8,1.4Z"/>
      <path class="st6" d="M-216.6-495.4c-1.3,0-2.6-.7-3.5-1.9-1.6-2.3-1.3-5.7.6-7.6.3-.3,6.9-6.8,17.6-6.8s7.9,1.7,10.2,3.6c1.4,1.1,2.3,1.9,6.3,1.9s6.5-1.2,8.6-2.5c2.1-1.3,4.8-3,9.2-3s8.4,2,11.1,3.7c2,1.2,3.1,1.9,4.4,1.9s2.3-.6,4.2-1.7c2.8-1.6,6.7-3.9,12.9-3.9,10.7,0,17.2,6.6,17.4,6.9,1.9,1.9,2.1,5.3.4,7.6-1.6,2.2-4.5,2.4-6.4.5-.1-.1-4.3-4.2-11.5-4.2s-6.5,1.4-9,2.8c-2.2,1.3-4.8,2.8-8.1,2.8s-6.2-1.6-8.6-3c-2.2-1.3-4.1-2.5-6.9-2.5s-3.3.7-5,1.8c-2.7,1.7-6,3.8-12.8,3.8s-9-1.8-11.5-3.9c-1.3-1.1-2-1.7-5-1.7-7.2,0-11.6,4.1-11.8,4.3-.8.8-1.9,1.2-2.9,1.2Z"/>
      <path class="st6" d="M-75-550.5c-.5-.5-5.6-6-17-12,1.5-5.9,2.3-12,2.3-18.3,0-42.4-35.2-76.7-78.6-76.7s-78.6,34.4-78.6,76.7.8,12.1,2.2,17.8c-11.7,6.3-16.8,12.3-17.2,12.8l15.4,12.7h0c0,0,2.8-3,9.2-6.8,10.8-6.3,31.9-14.7,67.9-14.7s58.6,8.6,70,15.1c6.7,3.8,9.7,6.8,9.8,6.9h0c0,0,14.7-13.6,14.7-13.6ZM-200.4-578.9c-6.2,0-25.6,7.6-25.6,7.6,0-41.8,25.6-54.4,25.6-54.4v46.9ZM-153-581.6s-9.6-.7-16.1-.7-16.1,1.6-16.1,1.6v-52.9s6.5-2.4,16.6-2.4,15.6,2.4,15.6,2.4v52ZM-138.1-578.9v-46.9s25.6,12.7,25.6,54.4c0,0-19.3-7.6-25.6-7.6Z"/>
    </g>
  </g>
  <rect class="st10" x="19.6" y="-703.3" width="265.5" height="267" rx="-84.7" ry="-84.7"/>
  <g>
    <path class="st14" d="M88.4-518.6c-1.7,0-3.4-.7-4.6-2.2-2.1-2.5-1.8-6.3.8-8.5.4-.3,9.2-7.6,23.4-7.6s10.5,1.9,13.5,4c1.8,1.3,3.1,2.2,8.4,2.2s8.6-1.3,11.5-2.8c2.9-1.5,6.4-3.4,12.3-3.4s11.1,2.3,14.7,4.1c2.6,1.3,4.2,2.1,5.9,2.1s3-.6,5.6-1.9c3.8-1.8,8.9-4.3,17.2-4.3,14.2,0,22.8,7.4,23.2,7.7,2.5,2.2,2.7,6,.6,8.5-2.2,2.5-6,2.7-8.5.6-.2-.2-5.8-4.7-15.3-4.7s-8.6,1.5-12,3.1c-3,1.4-6.4,3.1-10.8,3.1s-8.3-1.8-11.4-3.4c-2.9-1.5-5.5-2.8-9.2-2.8s-4.3.8-6.7,2c-3.6,1.9-8,4.2-17.1,4.2s-12-2.1-15.3-4.4c-1.7-1.2-2.7-1.9-6.6-1.9-9.6,0-15.5,4.7-15.7,4.9-1.1.9-2.5,1.4-3.8,1.4Z"/>
    <path class="st14" d="M104.3-495.4c-1.3,0-2.6-.7-3.5-1.9-1.6-2.3-1.3-5.7.6-7.6.3-.3,6.9-6.8,17.6-6.8s7.9,1.7,10.2,3.6c1.4,1.1,2.3,1.9,6.3,1.9s6.5-1.2,8.6-2.5c2.1-1.3,4.8-3,9.2-3s8.4,2,11.1,3.7c2,1.2,3.1,1.9,4.4,1.9s2.3-.6,4.2-1.7c2.8-1.6,6.7-3.9,12.9-3.9,10.7,0,17.2,6.6,17.4,6.9,1.9,1.9,2.1,5.3.4,7.6-1.6,2.2-4.5,2.4-6.4.5-.1-.1-4.3-4.2-11.5-4.2s-6.5,1.4-9,2.8c-2.2,1.3-4.8,2.8-8.1,2.8s-6.2-1.6-8.6-3c-2.2-1.3-4.1-2.5-6.9-2.5s-3.3.7-5,1.8c-2.7,1.7-6,3.8-12.8,3.8s-9-1.8-11.5-3.9c-1.3-1.1-2-1.7-5-1.7-7.2,0-11.6,4.1-11.8,4.3-.8.8-1.9,1.2-2.9,1.2Z"/>
    <path class="st14" d="M245.9-550.5c-.5-.5-5.6-6-17-12,1.5-5.9,2.3-12,2.3-18.3,0-42.4-35.2-76.7-78.6-76.7s-78.6,34.4-78.6,76.7.8,12.1,2.2,17.8c-11.7,6.3-16.8,12.3-17.2,12.8l15.4,12.7h0c0,0,2.8-3,9.2-6.8,10.8-6.3,31.9-14.7,67.9-14.7s58.6,8.6,70,15.1c6.7,3.8,9.7,6.8,9.8,6.9h0c0,0,14.7-13.6,14.7-13.6ZM120.5-578.9c-6.2,0-25.6,7.6-25.6,7.6,0-41.8,25.6-54.4,25.6-54.4v46.9ZM167.9-581.6s-9.6-.7-16.1-.7-16.1,1.6-16.1,1.6v-52.9s6.5-2.4,16.6-2.4,15.6,2.4,15.6,2.4v52ZM182.7-578.9v-46.9s25.6,12.7,25.6,54.4c0,0-19.3-7.6-25.6-7.6Z"/>
  </g>
  <g>
    <path class="st14" d="M-513-518.6c-1.7,0-3.4-.7-4.6-2.2-2.1-2.5-1.8-6.3.8-8.5.4-.3,9.2-7.6,23.4-7.6s10.5,1.9,13.5,4c1.8,1.3,3.1,2.2,8.4,2.2s8.6-1.3,11.5-2.8c2.9-1.5,6.4-3.4,12.3-3.4s11.1,2.3,14.7,4.1c2.6,1.3,4.2,2.1,5.9,2.1s3-.6,5.6-1.9c3.8-1.8,8.9-4.3,17.2-4.3,14.2,0,22.8,7.4,23.2,7.7,2.5,2.2,2.7,6,.6,8.5-2.2,2.5-6,2.7-8.5.6-.2-.2-5.8-4.7-15.3-4.7s-8.6,1.5-12,3.1c-3,1.4-6.4,3.1-10.8,3.1s-8.3-1.8-11.4-3.4c-2.9-1.5-5.5-2.8-9.2-2.8s-4.3.8-6.7,2c-3.6,1.9-8,4.2-17.1,4.2s-12-2.1-15.3-4.4c-1.7-1.2-2.7-1.9-6.6-1.9-9.6,0-15.5,4.7-15.7,4.9-1.1.9-2.5,1.4-3.8,1.4Z"/>
    <path class="st14" d="M-497.1-495.4c-1.3,0-2.6-.7-3.5-1.9-1.6-2.3-1.3-5.7.6-7.6.3-.3,6.9-6.8,17.6-6.8s7.9,1.7,10.2,3.6c1.4,1.1,2.3,1.9,6.3,1.9s6.5-1.2,8.6-2.5c2.1-1.3,4.8-3,9.2-3s8.4,2,11.1,3.7c2,1.2,3.1,1.9,4.4,1.9s2.3-.6,4.2-1.7c2.8-1.6,6.7-3.9,12.9-3.9,10.7,0,17.2,6.6,17.4,6.9,1.9,1.9,2.1,5.3.4,7.6-1.6,2.2-4.5,2.4-6.4.5-.1-.1-4.3-4.2-11.5-4.2s-6.5,1.4-9,2.8c-2.2,1.3-4.8,2.8-8.1,2.8s-6.2-1.6-8.6-3c-2.2-1.3-4.1-2.5-6.9-2.5s-3.3.7-5,1.8c-2.7,1.7-6,3.8-12.8,3.8s-9-1.8-11.5-3.9c-1.3-1.1-2-1.7-5-1.7-7.2,0-11.6,4.1-11.8,4.3-.8.8-1.9,1.2-2.9,1.2Z"/>
    <path class="st14" d="M-355.6-550.5c-.5-.5-5.6-6-17-12,1.5-5.9,2.3-12,2.3-18.3,0-42.4-35.2-76.7-78.6-76.7s-78.6,34.4-78.6,76.7.8,12.1,2.2,17.8c-11.7,6.3-16.8,12.3-17.2,12.8l15.4,12.7h0c0,0,2.8-3,9.2-6.8,10.8-6.3,31.9-14.7,67.9-14.7s58.6,8.6,70,15.1c6.7,3.8,9.7,6.8,9.8,6.9h0c0,0,14.7-13.6,14.7-13.6ZM-480.9-578.9c-6.2,0-25.6,7.6-25.6,7.6,0-41.8,25.6-54.4,25.6-54.4v46.9ZM-433.6-581.6s-9.6-.7-16.1-.7-16.1,1.6-16.1,1.6v-52.9s6.5-2.4,16.6-2.4,15.6,2.4,15.6,2.4v52ZM-418.7-578.9v-46.9s25.6,12.7,25.6,54.4c0,0-19.3-7.6-25.6-7.6Z"/>
  </g>
  <g>
    <rect class="st8" x="580.6" y="-1244" width="562.1" height="115.7"/>
    <g>
      <path class="st2" d="M623.9-1151.8c-1,0-2-.4-2.7-1.2-1.2-1.5-1-3.7.4-4.9.2-.2,5.4-4.4,13.6-4.4s6.1,1.1,7.8,2.3c1,.7,1.8,1.3,4.9,1.3s5-.8,6.7-1.6c1.7-.9,3.7-2,7.1-2s6.5,1.3,8.5,2.4c1.5.8,2.4,1.2,3.4,1.2s1.8-.4,3.3-1.1c2.2-1.1,5.2-2.5,10-2.5,8.3,0,13.3,4.3,13.5,4.5,1.4,1.3,1.6,3.5.3,4.9-1.3,1.4-3.5,1.6-4.9.3-.1,0-3.3-2.7-8.9-2.7s-5,.9-6.9,1.8c-1.7.8-3.7,1.8-6.3,1.8s-4.8-1.1-6.6-2c-1.7-.9-3.2-1.6-5.4-1.6s-2.5.4-3.9,1.2c-2.1,1.1-4.7,2.5-9.9,2.5s-7-1.2-8.9-2.5c-1-.7-1.5-1.1-3.8-1.1-5.6,0-9,2.7-9.1,2.8-.6.5-1.4.8-2.2.8Z"/>
      <path class="st2" d="M633.2-1138.4c-.7,0-1.5-.4-2-1.1-.9-1.3-.8-3.3.3-4.4.2-.2,4-3.9,10.2-3.9s4.6,1,5.9,2.1c.8.7,1.4,1.1,3.7,1.1s3.8-.7,5-1.5c1.2-.8,2.8-1.8,5.4-1.8s4.9,1.2,6.4,2.1c1.1.7,1.8,1.1,2.6,1.1s1.3-.3,2.4-1c1.6-.9,3.9-2.2,7.5-2.2,6.2,0,10,3.8,10.1,4,1.1,1.1,1.2,3.1.2,4.4-1,1.3-2.6,1.4-3.7.3,0,0-2.5-2.5-6.7-2.5s-3.8.8-5.2,1.6c-1.3.8-2.8,1.6-4.7,1.6s-3.6-.9-5-1.8c-1.3-.8-2.4-1.5-4-1.5s-1.9.4-2.9,1c-1.6,1-3.5,2.2-7.5,2.2s-5.2-1.1-6.7-2.3c-.7-.6-1.2-1-2.9-1-4.2,0-6.8,2.4-6.9,2.5-.5.5-1.1.7-1.7.7Z"/>
      <path class="st2" d="M715.4-1170.4c-.3-.3-3.3-3.5-9.8-6.9.8-3.4,1.3-6.9,1.3-10.6,0-24.6-20.4-44.5-45.6-44.5s-45.6,19.9-45.6,44.5.4,7,1.2,10.3c-6.8,3.7-9.7,7.1-10,7.4l8.9,7.4h0s1.6-1.7,5.4-3.9c6.3-3.7,18.5-8.5,39.4-8.5s34,5,40.7,8.8c3.9,2.2,5.6,3.9,5.7,4h0c0,0,8.5-7.9,8.5-7.9ZM642.6-1186.9c-3.6,0-14.8,4.4-14.8,4.4,0-24.3,14.8-31.6,14.8-31.6v27.2ZM670.1-1188.4s-5.5-.4-9.4-.4-9.4.9-9.4.9v-30.7s3.8-1.4,9.6-1.4,9.1,1.4,9.1,1.4v30.2ZM678.7-1186.9v-27.2s14.8,7.4,14.8,31.6c0,0-11.2-4.4-14.8-4.4Z"/>
    </g>
    <text class="st11" transform="translate(736.2 -1161.8)"><tspan x="0" y="0">BridgeHub</tspan></text>
  </g>
  <rect class="st16" x="-1262" y="-1032.5" width="151.1" height="129.2"/>
  <image width="1024" height="1024" transform="translate(-2754.2 -191.6)" xlink:href="loading2-1.png"/>
  <image width="1024" height="1024" transform="translate(376.4 -5.3) scale(.3)" xlink:href="loading2-2.png"/>
  <g>
    <image width="326" height="220" transform="translate(-257.3 -1423.9) scale(.7)" xlink:href="loading2-3.png"/>
    <ellipse class="st4" cx="-152.1" cy="-1365" rx="18.2" ry="14.8"/>
  </g>
  <ellipse class="st6" cx="167" cy="-1397.7" rx="20.4" ry="26.2"/>
  <ellipse class="st6" cx="257.7" cy="-1398.7" rx="27" ry="33.2"/>
  <image width="1024" height="1024" transform="translate(-1692.3 -191.6)" xlink:href="../../../../../../../../Downloads/ChatGPT Image 2025년 6월 15일 오후 12_45_21.png"/>
  <g>
    <polygon class="st6" points="299 0 300 0 300 300 0 300 0 299 299 299 299 0"/>
    <path class="st1" d="M213.7,47.8c1.5.9,12.3,8.7,15,11,54.7,47.3,53.8,133.5-.5,180.9-50.2,43.9-126.7,37.9-170-12.5-2-2.3-9.3-11.7-10-13.9-3.1-10.2,5.4-18.4,15.5-15.5-4.4-7.4-17.5-32.1-3.2-35.2,12.8-2.8,12.7,14.9,17.2,22.7,1.9-.7,1.7-3.6,3-5.5,4.2-6,13.2-6.5,18-1,7.5,8.7,7.5,13.5,19.2,20.7,46.5,28.6,103.8-14.6,88.9-67-1.9-6.5-10.6-23.1-16.4-26.5l-17.4-11.5c-2-2.8-15-2.5-17-7-2.9-6.5,7.1-8.8,9-13,.7-1.6,3.5-24.4,3.3-26.2-.6-4.7-10-11.1-5.9-16.3,4.1-5.1,28.8,4.9,35,6.6,0,0,4.2,1.7,16.4,9ZM170.4,37.9,190.8,97.7c.3.8,10.4,9,12.5,11.8s4.8,7.8,6.9,11.8,4.7,16.2,10.9,10.1c5.4-5.5-9.6-23.3-9.7-29.7,1.9-.5,1.6-3.8,5.5,0s12.6,21.5,11.8,27.8-2.6,7.2-4.3,8.1-8.6.7-9,1c-.8.7.1,17.1-.4,21-7.5,53.4-78.9,75.6-114.1,34.3s-9-17.4-14.1-11c-5.1,6.4,11.4,19,10.6,22.6-1.3,6.2-5.2,1-6.6.4-2.5-1.1-13,5.5-12.9,8s4.1,4.9,1.1,7.1c-5.7,4-14.1-14.4-17-16-4.9-2.7-8,.4-6.8,5.8,2.1,9.6,30,32.7,39,37.8,80.6,45.2,179.8-21.4,168-113.2-.4-3.1-4.4-24.5-6.3-24.5s-4.5,3.8-9.5,3c-1.6-.3-5.3-2.6-6.4-4s-10.4-16.3-10.8-17.2c-1-2.4.4-3.6.3-4.7,10.3-2.7,12.3,23.3,21.9,18.4,4.6-2.3-.7-10.1-2.6-13.4-6-10.4-18-24-27.3-31.5s-10.6-8.2-11.6-8.4M62.3,168.5c-4.9.2,2.3,17.4,3.3,19.6,1.4,3.1,7.6,14.4,9.7,16.3s5.6-.5,5.4-2.3-7.4-11.4-8.7-14.3c-2.2-4.6-4.3-13.2-6.3-16.6s-2.7-2.7-3.3-2.7Z"/>
    <path class="st0" d="M246.2,113.6c5,.8,9-3,9.5-3,2,0,5.9,21.4,6.3,24.5,11.9,91.7-87.4,158.4-168,113.2-9-5.1-36.8-28.2-39-37.8s1.9-8.5,6.8-5.8c2.9,1.6,11.3,20,17,16,3-2.1-1-5.5-1.1-7.1,0-2.5,10.4-9.1,12.9-8s5.3,5.8,6.6-.4-15.7-16.2-10.6-22.6c5.1-6.4,11,7.4,14.1,11,35.2,41.3,106.6,19.1,114.1-34.3.6-3.9-.3-20.3.4-21s7.2,0,9-1c3-.6,1.9,1.5,2,3.4.9,25.9-3.2,46.1-22.9,63.8-20.6,18.5-47.5,26.2-74.8,18.9-9-2.4-16.1-9.6-24.9-2-8.1,6.9-2.4,17.9,6,21.9,17.8,8.4,44.8,9.3,63.8,5,45.9-10.4,80.1-57.9,78.3-104.5-.4-10.5-4.4-20.3-5.6-30.6Z"/>
    <path class="st5" d="M229.2,87.7c.1,1.1-1.3,2.3-.3,4.7s10,16.2,10.8,17.2,4.8,3.8,6.4,4c1.2,10.3,5.2,20.1,5.6,30.6,1.8,46.6-32.5,94.1-78.3,104.5-19,4.3-46,3.4-63.8-5s-14.1-15-6-21.9c8.8-7.5,16-.3,24.9,2,27.2,7.2,54.2-.4,74.8-18.9,19.7-17.7,23.8-37.9,22.9-63.8,0-1.9,1-4-2-3.4,1.7-.9,4-6,4.3-8.1.8-6.3-7.2-23.4-11.8-27.8s-3.5.1-5.5,0c-4.3-.2-9.2-17.1,2.6-20.9,4.7-1.5,14.8,2.3,15.4,6.9Z"/>
    <path class="st3" d="M209.7,52.9c1,.2,10,7.1,11.6,8.4,9.3,7.5,21.3,21.1,27.3,31.5,1.9,3.2,7.2,11.1,2.6,13.4-9.7,4.8-11.7-21.2-21.9-18.4-.6-4.6-10.5-7.9-15.4-6.9-8.6,1.8-4.4,19.4-2.6,20.9,0,6.4,15.1,24.2,9.7,29.7-6.1,6.2-9.3-6.9-10.9-10.1s-4.2-8.2-6.9-11.8-12.1-11-12.5-11.8l-14.3-8.2c-1.7-.9-12.1-4.6-12.1-5.3.9-2.1,5.3-4,6-5.2,1.5-2.5,4.4-28.1,3.9-31.7s-3.5-5.6-4-9.4c.9-.9,20.7,5,24,6.9s15.2,8.1,15.2,8.1Z"/>
    <path class="st13" d="M62.3,168.5c.6,0,2.8,1.8,3.3,2.7,2.1,3.4,4.1,12,6.3,16.6s8.6,13.2,8.7,14.3c.3,1.8-3.3,4.2-5.4,2.3s-8.2-13.1-9.7-16.3-8.2-19.4-3.3-19.6Z"/>
  </g>
  <image width="300" height="300" transform="translate(-.4 334.9)" xlink:href="loading.png"/>
  <path class="st7" d="M195.7,63.7c-.3.4-.2.9.2,1.2,0,0,1.1.8.7,1.8-.3.7-1.2,1.1-1.8,1.3s-.3,0-.5,0h0c-.4-.2-.8,0-.9.3l-.2.3c-.2.4,0,.8.4.9h0c.2,0,.3.2.4.3.3.6.6,1.5.3,2.2-.4.9-1.7.7-1.8.7-.5,0-.9.2-1,.7,0,.5.2.9.7,1,.9.2,2.9,0,3.7-1.7.4-.9.3-1.9,0-2.7s0-.7.4-.8c.8-.4,1.6-.9,2-1.9.8-1.8-.4-3.3-1.2-3.9-.4-.3-.9-.2-1.2.2Z"/>
  <circle class="st7" cx="186.4" cy="53" r="3.5"/>
  <circle class="st7" cx="180.3" cy="78" r="3.5"/>
  <g>
    <line class="st9" x1="206.9" y1="55" x2="213.5" y2="40.1"/>
    <line class="st9" x1="212.5" y1="57.6" x2="220.7" y2="43.4"/>
  </g>
  <g>
    <line class="st9" x1="194.5" y1="94.6" x2="188.7" y2="109.9"/>
    <line class="st9" x1="189.5" y1="92.7" x2="182.7" y2="107.5"/>
  </g>
</svg>