<?xml version="1.0" encoding="UTF-8"?>
<svg id="_레이어_1" data-name="레이어_1" xmlns="http://www.w3.org/2000/svg" version="1.1" viewBox="0 0 510.7 118.2">
  <!-- Generator: Adobe Illustrator 29.5.1, SVG Export Plug-In . SVG Version: 2.1.0 Build 141)  -->
  <defs>
    <style>
      .st0 {
        fill: #2469ac;
      }

      .st1 {
        fill: #fff;
      }

      .st2, .st3 {
        fill: none;
      }

      .st4, .st5 {
        fill: #133464;
      }

      .st6 {
        fill: #2564a1;
      }

      .st3 {
        stroke: #2469ac;
        stroke-miterlimit: 10;
        stroke-width: 6px;
      }

      .st5 {
        font-family: Roboto-BlackItalic, Roboto;
        font-size: 81px;
        font-style: italic;
        font-weight: 800;
      }
    </style>
  </defs>
  <g>
    <rect class="st0" x="-907.2" y="202.2" width="265.5" height="267" rx="-188.1" ry="-188.1"/>
    <g>
      <path class="st1" d="M-838.4,386.9c-1.7,0-3.4-.7-4.6-2.2-2.1-2.5-1.8-6.3.8-8.5.4-.3,9.2-7.6,23.4-7.6s10.5,1.9,13.5,4c1.8,1.3,3.1,2.2,8.4,2.2s8.6-1.3,11.5-2.8c2.9-1.5,6.4-3.4,12.3-3.4s11.1,2.3,14.7,4.1c2.6,1.3,4.2,2.1,5.9,2.1s3-.6,5.6-1.9c3.8-1.8,8.9-4.3,17.2-4.3,14.2,0,22.8,7.4,23.2,7.7,2.5,2.2,2.7,6,.6,8.5-2.2,2.5-6,2.7-8.5.6-.2-.2-5.8-4.7-15.3-4.7s-8.6,1.5-12,3.1c-3,1.4-6.4,3.1-10.8,3.1s-8.3-1.8-11.4-3.4c-2.9-1.5-5.5-2.8-9.2-2.8s-4.3.8-6.7,2c-3.6,1.9-8,4.2-17.1,4.2s-12-2.1-15.3-4.4c-1.7-1.2-2.7-1.9-6.6-1.9-9.6,0-15.5,4.7-15.7,4.9-1.1.9-2.5,1.4-3.8,1.4Z"/>
      <path class="st1" d="M-822.5,410c-1.3,0-2.6-.7-3.5-1.9-1.6-2.3-1.3-5.7.6-7.6.3-.3,6.9-6.8,17.6-6.8s7.9,1.7,10.2,3.6c1.4,1.1,2.3,1.9,6.3,1.9s6.5-1.2,8.6-2.5c2.1-1.3,4.8-3,9.2-3s8.4,2,11.1,3.7c2,1.2,3.1,1.9,4.4,1.9s2.3-.6,4.2-1.7c2.8-1.6,6.7-3.9,12.9-3.9,10.7,0,17.2,6.6,17.4,6.9,1.9,1.9,2.1,5.3.4,7.6-1.6,2.2-4.5,2.4-6.4.5-.1-.1-4.3-4.2-11.5-4.2s-6.5,1.4-9,2.8c-2.2,1.3-4.8,2.8-8.1,2.8s-6.2-1.6-8.6-3c-2.2-1.3-4.1-2.5-6.9-2.5s-3.3.7-5,1.8c-2.7,1.7-6,3.8-12.8,3.8s-9-1.8-11.5-3.9c-1.3-1.1-2-1.7-5-1.7-7.2,0-11.6,4.1-11.8,4.3-.8.8-1.9,1.2-2.9,1.2Z"/>
      <path class="st1" d="M-680.9,355c-.5-.5-5.6-6-17-12,1.5-5.9,2.3-12,2.3-18.3,0-42.4-35.2-76.7-78.6-76.7s-78.6,34.4-78.6,76.7.8,12.1,2.2,17.8c-11.7,6.3-16.8,12.3-17.2,12.8l15.4,12.7h0c0,0,2.8-3,9.2-6.8,10.8-6.3,31.9-14.7,67.9-14.7s58.6,8.6,70,15.1c6.7,3.8,9.7,6.8,9.8,6.9h0c0,0,14.7-13.6,14.7-13.6ZM-806.3,326.6c-6.2,0-25.6,7.6-25.6,7.6,0-41.8,25.6-54.4,25.6-54.4v46.9ZM-758.9,323.9s-9.6-.7-16.1-.7-16.1,1.6-16.1,1.6v-52.9s6.5-2.4,16.6-2.4,15.6,2.4,15.6,2.4v52ZM-744.1,326.6v-46.9s25.6,12.7,25.6,54.4c0,0-19.3-7.6-25.6-7.6Z"/>
    </g>
  </g>
  <rect class="st4" x="-586.3" y="202.2" width="265.5" height="267" rx="-27.6" ry="-27.6"/>
  <g>
    <path class="st6" d="M-517.5,386.9c-1.7,0-3.4-.7-4.6-2.2-2.1-2.5-1.8-6.3.8-8.5.4-.3,9.2-7.6,23.4-7.6s10.5,1.9,13.5,4c1.8,1.3,3.1,2.2,8.4,2.2s8.6-1.3,11.5-2.8c2.9-1.5,6.4-3.4,12.3-3.4s11.1,2.3,14.7,4.1c2.6,1.3,4.2,2.1,5.9,2.1s3-.6,5.6-1.9c3.8-1.8,8.9-4.3,17.2-4.3,14.2,0,22.8,7.4,23.2,7.7,2.5,2.2,2.7,6,.6,8.5-2.2,2.5-6,2.7-8.5.6-.2-.2-5.8-4.7-15.3-4.7s-8.6,1.5-12,3.1c-3,1.4-6.4,3.1-10.8,3.1s-8.3-1.8-11.4-3.4c-2.9-1.5-5.5-2.8-9.2-2.8s-4.3.8-6.7,2c-3.6,1.9-8,4.2-17.1,4.2s-12-2.1-15.3-4.4c-1.7-1.2-2.7-1.9-6.6-1.9-9.6,0-15.5,4.7-15.7,4.9-1.1.9-2.5,1.4-3.8,1.4Z"/>
    <path class="st6" d="M-501.6,410c-1.3,0-2.6-.7-3.5-1.9-1.6-2.3-1.3-5.7.6-7.6.3-.3,6.9-6.8,17.6-6.8s7.9,1.7,10.2,3.6c1.4,1.1,2.3,1.9,6.3,1.9s6.5-1.2,8.6-2.5c2.1-1.3,4.8-3,9.2-3s8.4,2,11.1,3.7c2,1.2,3.1,1.9,4.4,1.9s2.3-.6,4.2-1.7c2.8-1.6,6.7-3.9,12.9-3.9,10.7,0,17.2,6.6,17.4,6.9,1.9,1.9,2.1,5.3.4,7.6-1.6,2.2-4.5,2.4-6.4.5-.1-.1-4.3-4.2-11.5-4.2s-6.5,1.4-9,2.8c-2.2,1.3-4.8,2.8-8.1,2.8s-6.2-1.6-8.6-3c-2.2-1.3-4.1-2.5-6.9-2.5s-3.3.7-5,1.8c-2.7,1.7-6,3.8-12.8,3.8s-9-1.8-11.5-3.9c-1.3-1.1-2-1.7-5-1.7-7.2,0-11.6,4.1-11.8,4.3-.8.8-1.9,1.2-2.9,1.2Z"/>
    <path class="st6" d="M-360.1,355c-.5-.5-5.6-6-17-12,1.5-5.9,2.3-12,2.3-18.3,0-42.4-35.2-76.7-78.6-76.7s-78.6,34.4-78.6,76.7.8,12.1,2.2,17.8c-11.7,6.3-16.8,12.3-17.2,12.8l15.4,12.7h0c0,0,2.8-3,9.2-6.8,10.8-6.3,31.9-14.7,67.9-14.7s58.6,8.6,70,15.1c6.7,3.8,9.7,6.8,9.8,6.9h0c0,0,14.7-13.6,14.7-13.6ZM-485.4,326.6c-6.2,0-25.6,7.6-25.6,7.6,0-41.8,25.6-54.4,25.6-54.4v46.9ZM-438.1,323.9s-9.6-.7-16.1-.7-16.1,1.6-16.1,1.6v-52.9s6.5-2.4,16.6-2.4,15.6,2.4,15.6,2.4v52ZM-423.2,326.6v-46.9s25.6,12.7,25.6,54.4c0,0-19.3-7.6-25.6-7.6Z"/>
  </g>
  <g>
    <path class="st6" d="M-1118.9,386.9c-1.7,0-3.4-.7-4.6-2.2-2.1-2.5-1.8-6.3.8-8.5.4-.3,9.2-7.6,23.4-7.6s10.5,1.9,13.5,4c1.8,1.3,3.1,2.2,8.4,2.2s8.6-1.3,11.5-2.8c2.9-1.5,6.4-3.4,12.3-3.4s11.1,2.3,14.7,4.1c2.6,1.3,4.2,2.1,5.9,2.1s3-.6,5.6-1.9c3.8-1.8,8.9-4.3,17.2-4.3,14.2,0,22.8,7.4,23.2,7.7,2.5,2.2,2.7,6,.6,8.5-2.2,2.5-6,2.7-8.5.6-.2-.2-5.8-4.7-15.3-4.7s-8.6,1.5-12,3.1c-3,1.4-6.4,3.1-10.8,3.1s-8.3-1.8-11.4-3.4c-2.9-1.5-5.5-2.8-9.2-2.8s-4.3.8-6.7,2c-3.6,1.9-8,4.2-17.1,4.2s-12-2.1-15.3-4.4c-1.7-1.2-2.7-1.9-6.6-1.9-9.6,0-15.5,4.7-15.7,4.9-1.1.9-2.5,1.4-3.8,1.4Z"/>
    <path class="st6" d="M-1103,410c-1.3,0-2.6-.7-3.5-1.9-1.6-2.3-1.3-5.7.6-7.6.3-.3,6.9-6.8,17.6-6.8s7.9,1.7,10.2,3.6c1.4,1.1,2.3,1.9,6.3,1.9s6.5-1.2,8.6-2.5c2.1-1.3,4.8-3,9.2-3s8.4,2,11.1,3.7c2,1.2,3.1,1.9,4.4,1.9s2.3-.6,4.2-1.7c2.8-1.6,6.7-3.9,12.9-3.9,10.7,0,17.2,6.6,17.4,6.9,1.9,1.9,2.1,5.3.4,7.6-1.6,2.2-4.5,2.4-6.4.5-.1-.1-4.3-4.2-11.5-4.2s-6.5,1.4-9,2.8c-2.2,1.3-4.8,2.8-8.1,2.8s-6.2-1.6-8.6-3c-2.2-1.3-4.1-2.5-6.9-2.5s-3.3.7-5,1.8c-2.7,1.7-6,3.8-12.8,3.8s-9-1.8-11.5-3.9c-1.3-1.1-2-1.7-5-1.7-7.2,0-11.6,4.1-11.8,4.3-.8.8-1.9,1.2-2.9,1.2Z"/>
    <path class="st6" d="M-961.5,355c-.5-.5-5.6-6-17-12,1.5-5.9,2.3-12,2.3-18.3,0-42.4-35.2-76.7-78.6-76.7s-78.6,34.4-78.6,76.7.8,12.1,2.2,17.8c-11.7,6.3-16.8,12.3-17.2,12.8l15.4,12.7h0c0,0,2.8-3,9.2-6.8,10.8-6.3,31.9-14.7,67.9-14.7s58.6,8.6,70,15.1c6.7,3.8,9.7,6.8,9.8,6.9h0c0,0,14.7-13.6,14.7-13.6ZM-1086.8,326.6c-6.2,0-25.6,7.6-25.6,7.6,0-41.8,25.6-54.4,25.6-54.4v46.9ZM-1039.5,323.9s-9.6-.7-16.1-.7-16.1,1.6-16.1,1.6v-52.9s6.5-2.4,16.6-2.4,15.6,2.4,15.6,2.4v52ZM-1024.6,326.6v-46.9s25.6,12.7,25.6,54.4c0,0-19.3-7.6-25.6-7.6Z"/>
  </g>
  <rect class="st2" x="-25.3" y="1.5" width="562.1" height="115.7"/>
  <g>
    <path class="st0" d="M18,93.6c-1,0-2-.4-2.7-1.2-1.2-1.5-1-3.7.4-4.9.2-.2,5.4-4.4,13.6-4.4s6.1,1.1,7.8,2.3c1,.7,1.8,1.3,4.9,1.3s5-.8,6.7-1.6c1.7-.9,3.7-2,7.1-2s6.5,1.3,8.5,2.4c1.5.8,2.4,1.2,3.4,1.2s1.8-.4,3.3-1.1c2.2-1.1,5.2-2.5,10-2.5,8.3,0,13.3,4.3,13.5,4.5,1.4,1.3,1.6,3.5.3,4.9-1.3,1.4-3.5,1.6-4.9.3-.1,0-3.3-2.7-8.9-2.7s-5,.9-6.9,1.8c-1.7.8-3.7,1.8-6.3,1.8s-4.8-1.1-6.6-2c-1.7-.9-3.2-1.6-5.4-1.6s-2.5.4-3.9,1.2c-2.1,1.1-4.7,2.5-9.9,2.5s-7-1.2-8.9-2.5c-1-.7-1.5-1.1-3.8-1.1-5.6,0-9,2.7-9.1,2.8-.6.5-1.4.8-2.2.8Z"/>
    <path class="st0" d="M27.3,107.1c-.7,0-1.5-.4-2-1.1-.9-1.3-.8-3.3.3-4.4.2-.2,4-3.9,10.2-3.9s4.6,1,5.9,2.1c.8.7,1.4,1.1,3.7,1.1s3.8-.7,5-1.5c1.2-.8,2.8-1.8,5.4-1.8s4.9,1.2,6.4,2.1c1.1.7,1.8,1.1,2.6,1.1s1.3-.3,2.4-1c1.6-.9,3.9-2.2,7.5-2.2,6.2,0,10,3.8,10.1,4,1.1,1.1,1.2,3.1.2,4.4-1,1.3-2.6,1.4-3.7.3,0,0-2.5-2.5-6.7-2.5s-3.8.8-5.2,1.6c-1.3.8-2.8,1.6-4.7,1.6s-3.6-.9-5-1.8c-1.3-.8-2.4-1.5-4-1.5s-1.9.4-2.9,1c-1.6,1-3.5,2.2-7.5,2.2s-5.2-1.1-6.7-2.3c-.7-.6-1.2-1-2.9-1-4.2,0-6.8,2.4-6.9,2.5-.5.5-1.1.7-1.7.7Z"/>
    <path class="st0" d="M109.4,75.1c-.3-.3-3.3-3.5-9.8-6.9.8-3.4,1.3-6.9,1.3-10.6,0-24.6-20.4-44.5-45.6-44.5S9.7,33,9.7,57.6s.4,7,1.2,10.3c-6.8,3.7-9.7,7.1-10,7.4l8.9,7.4h0s1.6-1.7,5.4-3.9c6.3-3.7,18.5-8.5,39.4-8.5s34,5,40.7,8.8c3.9,2.2,5.6,3.9,5.7,4h0c0,0,8.5-7.9,8.5-7.9ZM36.7,58.6c-3.6,0-14.8,4.4-14.8,4.4,0-24.3,14.8-31.6,14.8-31.6v27.2ZM64.2,57.1s-5.5-.4-9.4-.4-9.4.9-9.4.9v-30.7s3.8-1.4,9.6-1.4,9.1,1.4,9.1,1.4v30.2ZM72.8,58.6v-27.2s14.8,7.4,14.8,31.6c0,0-11.2-4.4-14.8-4.4Z"/>
  </g>
  <g>
    <path class="st0" d="M183.2-56.7c-1,0-2-.4-2.7-1.2-1.2-1.5-1-3.7.4-4.9.2-.2,5.4-4.4,13.6-4.4s6.1,1.1,7.8,2.3c1,.7,1.8,1.3,4.9,1.3s5-.8,6.7-1.6c1.7-.9,3.7-2,7.1-2s6.5,1.3,8.5,2.4c1.5.8,2.4,1.2,3.4,1.2s1.8-.4,3.3-1.1c2.2-1.1,5.2-2.5,10-2.5,8.3,0,13.3,4.3,13.5,4.5,1.4,1.3,1.6,3.5.3,4.9-1.3,1.4-3.5,1.6-4.9.3-.1,0-3.3-2.7-8.9-2.7s-5,.9-6.9,1.8c-1.7.8-3.7,1.8-6.3,1.8s-4.8-1.1-6.6-2c-1.7-.9-3.2-1.6-5.4-1.6s-2.5.4-3.9,1.2c-2.1,1.1-4.7,2.5-9.9,2.5s-7-1.2-8.9-2.5c-1-.7-1.5-1.1-3.8-1.1-5.6,0-9,2.7-9.1,2.8-.6.5-1.4.8-2.2.8Z"/>
    <path class="st0" d="M192.4-43.2c-.7,0-1.5-.4-2-1.1-.9-1.3-.8-3.3.3-4.4.2-.2,4-3.9,10.2-3.9s4.6,1,5.9,2.1c.8.7,1.4,1.1,3.7,1.1s3.8-.7,5-1.5c1.2-.8,2.8-1.8,5.4-1.8s4.9,1.2,6.4,2.1c1.1.7,1.8,1.1,2.6,1.1s1.3-.3,2.4-1c1.6-.9,3.9-2.2,7.5-2.2,6.2,0,10,3.8,10.1,4,1.1,1.1,1.2,3.1.2,4.4-1,1.3-2.6,1.4-3.7.3,0,0-2.5-2.5-6.7-2.5s-3.8.8-5.2,1.6c-1.3.8-2.8,1.6-4.7,1.6s-3.6-.9-5-1.8c-1.3-.8-2.4-1.5-4-1.5s-1.9.4-2.9,1c-1.6,1-3.5,2.2-7.5,2.2s-5.2-1.1-6.7-2.3c-.7-.6-1.2-1-2.9-1-4.2,0-6.8,2.4-6.9,2.5-.5.5-1.1.7-1.7.7Z"/>
    <path class="st0" d="M274.6-75.2c-.3-.3-3.3-3.5-9.8-6.9.8-3.4,1.3-6.9,1.3-10.6,0-24.6-20.4-44.5-45.6-44.5s-45.6,19.9-45.6,44.5.4,7,1.2,10.3c-6.8,3.7-9.7,7.1-10,7.4l8.9,7.4h0s1.6-1.7,5.4-3.9c6.3-3.7,18.5-8.5,39.4-8.5s34,5,40.7,8.8c3.9,2.2,5.6,3.9,5.7,4h0c0,0,8.5-7.9,8.5-7.9ZM201.8-91.7c-3.6,0-14.8,4.4-14.8,4.4,0-24.3,14.8-31.6,14.8-31.6v27.2ZM229.3-93.2s-5.5-.4-9.4-.4-9.4.9-9.4.9v-30.7s3.8-1.4,9.6-1.4,9.1,1.4,9.1,1.4v30.2ZM237.9-91.7v-27.2s14.8,7.4,14.8,31.6c0,0-11.2-4.4-14.8-4.4Z"/>
  </g>
  <text class="st5" transform="translate(130.3 83.7)"><tspan x="0" y="0">BridgeHub</tspan></text>
  <rect class="st2" x="-25.3" y="-338.5" width="562.1" height="115.7"/>
  <g>
    <path class="st0" d="M18-246.4c-1,0-2-.4-2.7-1.2-1.2-1.5-1-3.7.4-4.9.2-.2,5.4-4.4,13.6-4.4s6.1,1.1,7.8,2.3c1,.7,1.8,1.3,4.9,1.3s5-.8,6.7-1.6c1.7-.9,3.7-2,7.1-2s6.5,1.3,8.5,2.4c1.5.8,2.4,1.2,3.4,1.2s1.8-.4,3.3-1.1c2.2-1.1,5.2-2.5,10-2.5,8.3,0,13.3,4.3,13.5,4.5,1.4,1.3,1.6,3.5.3,4.9-1.3,1.4-3.5,1.6-4.9.3-.1,0-3.3-2.7-8.9-2.7s-5,.9-6.9,1.8c-1.7.8-3.7,1.8-6.3,1.8s-4.8-1.1-6.6-2c-1.7-.9-3.2-1.6-5.4-1.6s-2.5.4-3.9,1.2c-2.1,1.1-4.7,2.5-9.9,2.5s-7-1.2-8.9-2.5c-1-.7-1.5-1.1-3.8-1.1-5.6,0-9,2.7-9.1,2.8-.6.5-1.4.8-2.2.8Z"/>
    <path class="st0" d="M27.3-232.9c-.7,0-1.5-.4-2-1.1-.9-1.3-.8-3.3.3-4.4.2-.2,4-3.9,10.2-3.9s4.6,1,5.9,2.1c.8.7,1.4,1.1,3.7,1.1s3.8-.7,5-1.5c1.2-.8,2.8-1.8,5.4-1.8s4.9,1.2,6.4,2.1c1.1.7,1.8,1.1,2.6,1.1s1.3-.3,2.4-1c1.6-.9,3.9-2.2,7.5-2.2,6.2,0,10,3.8,10.1,4,1.1,1.1,1.2,3.1.2,4.4-1,1.3-2.6,1.4-3.7.3,0,0-2.5-2.5-6.7-2.5s-3.8.8-5.2,1.6c-1.3.8-2.8,1.6-4.7,1.6s-3.6-.9-5-1.8c-1.3-.8-2.4-1.5-4-1.5s-1.9.4-2.9,1c-1.6,1-3.5,2.2-7.5,2.2s-5.2-1.1-6.7-2.3c-.7-.6-1.2-1-2.9-1-4.2,0-6.8,2.4-6.9,2.5-.5.5-1.1.7-1.7.7Z"/>
    <path class="st0" d="M109.4-264.9c-.3-.3-3.3-3.5-9.8-6.9.8-3.4,1.3-6.9,1.3-10.6,0-24.6-20.4-44.5-45.6-44.5s-45.6,19.9-45.6,44.5.4,7,1.2,10.3c-6.8,3.7-9.7,7.1-10,7.4l8.9,7.4h0s1.6-1.7,5.4-3.9c6.3-3.7,18.5-8.5,39.4-8.5s34,5,40.7,8.8c3.9,2.2,5.6,3.9,5.7,4h0c0,0,8.5-7.9,8.5-7.9ZM36.7-281.4c-3.6,0-14.8,4.4-14.8,4.4,0-24.3,14.8-31.6,14.8-31.6v27.2ZM64.2-282.9s-5.5-.4-9.4-.4-9.4.9-9.4.9v-30.7s3.8-1.4,9.6-1.4,9.1,1.4,9.1,1.4v30.2ZM72.8-281.4v-27.2s14.8,7.4,14.8,31.6c0,0-11.2-4.4-14.8-4.4Z"/>
  </g>
  <text class="st5" transform="translate(130.3 -256.3)"><tspan x="0" y="0">BridgeHub</tspan></text>
  <path class="st3" d="M-21.9-53c3.1,0,6.2,4,9.3,4s6.2-4,9.3-4,6.2,4,9.3,4,6.2-4,9.3-4,6.2,4,9.3,4,6.2-4,9.3-4,6.2,4,9.3,4,6.2-4,9.3-4,6.2,4,9.3,4,6.2-4,9.3-4,6.2,4,9.3,4,6.2-4,9.3-4,6.2,4,9.3,4,6.2-4,9.3-4,6.2,4,9.3,4,6.2-4,9.3-4"/>
  <path class="st3" d="M-21.9-42c3.1,0,6.2,4,9.3,4s6.2-4,9.3-4,6.2,4,9.3,4,6.2-4,9.3-4,6.2,4,9.3,4,6.2-4,9.3-4,6.2,4,9.3,4,6.2-4,9.3-4,6.2,4,9.3,4,6.2-4,9.3-4,6.2,4,9.3,4,6.2-4,9.3-4,6.2,4,9.3,4,6.2-4,9.3-4,6.2,4,9.3,4,6.2-4,9.3-4"/>
</svg>