<?xml version="1.0" encoding="UTF-8"?>
<svg id="_레이어_2" data-name="레이어 2" xmlns="http://www.w3.org/2000/svg" viewBox="0 0 562.07 115.69">
  <defs>
    <style>
      .cls-1 {
        fill: #2469ac;
      }

      .cls-2 {
        fill: none;
      }

      .cls-3 {
        fill: #133464;
        font-family: Roboto-BlackItalic, Roboto;
        font-size: 81px;
        font-style: italic;
        font-weight: 800;
      }
    </style>
  </defs>
  <g id="_레이어_1-2" data-name="레이어 1">
    <g>
      <rect class="cls-2" width="562.07" height="115.69"/>
      <g>
        <path class="cls-1" d="M43.39,92.15c-.99,0-1.98-.43-2.67-1.25-1.24-1.47-1.03-3.68.44-4.92.22-.18,5.37-4.43,13.59-4.43,4.16,0,6.09,1.11,7.85,2.35,1.05.73,1.8,1.27,4.88,1.27,3.55,0,5-.76,6.68-1.65,1.66-.87,3.72-1.96,7.14-1.96,3.86,0,6.46,1.33,8.54,2.4,1.51.78,2.42,1.21,3.44,1.21.95,0,1.77-.38,3.26-1.1,2.19-1.06,5.19-2.51,9.98-2.51,8.27,0,13.26,4.29,13.47,4.47,1.45,1.27,1.59,3.47.33,4.91-1.27,1.45-3.47,1.59-4.91.33-.11-.09-3.34-2.75-8.89-2.75-3.2,0-5.02.88-6.95,1.82-1.74.84-3.71,1.8-6.3,1.8-2.75,0-4.8-1.05-6.61-1.98-1.71-.87-3.18-1.63-5.37-1.63-1.69,0-2.52.44-3.89,1.16-2.07,1.09-4.66,2.45-9.93,2.45-4.88,0-6.99-1.2-8.88-2.53-.99-.7-1.54-1.08-3.84-1.08-5.59,0-8.99,2.7-9.14,2.82-.65.55-1.44.81-2.22.81Z"/>
        <path class="cls-1" d="M52.63,105.57c-.75,0-1.49-.38-2.01-1.11-.93-1.31-.78-3.28.33-4.39.16-.16,4.03-3.95,10.21-3.95,3.13,0,4.57.99,5.9,2.09.79.66,1.35,1.13,3.67,1.13,2.67,0,3.76-.68,5.02-1.47,1.25-.78,2.8-1.75,5.36-1.75,2.9,0,4.85,1.19,6.42,2.14,1.14.69,1.82,1.08,2.58,1.08.71,0,1.33-.34,2.45-.98,1.65-.95,3.9-2.24,7.5-2.24,6.21,0,9.97,3.83,10.12,3.99,1.09,1.13,1.2,3.09.25,4.38-.95,1.29-2.6,1.42-3.69.29-.08-.08-2.51-2.45-6.68-2.45-2.4,0-3.77.79-5.22,1.62-1.31.75-2.79,1.6-4.73,1.6-2.06,0-3.61-.94-4.97-1.77-1.28-.78-2.39-1.45-4.03-1.45-1.27,0-1.89.39-2.92,1.03-1.56.97-3.5,2.19-7.46,2.19-3.66,0-5.25-1.07-6.67-2.26-.75-.62-1.16-.96-2.89-.96-4.2,0-6.76,2.41-6.86,2.51-.49.49-1.08.72-1.67.72Z"/>
        <path class="cls-1" d="M134.8,73.64c-.27-.29-3.28-3.46-9.85-6.94.85-3.4,1.31-6.94,1.31-10.6,0-24.6-20.42-44.55-45.61-44.55s-45.61,19.94-45.61,44.55c0,3.56.44,7.02,1.25,10.35-6.8,3.68-9.74,7.12-9.99,7.43l8.95,7.4-.06.07s1.64-1.8,5.37-3.99c6.25-3.67,18.5-8.54,39.41-8.54s34.03,5.01,40.66,8.75c3.88,2.19,5.64,3.95,5.69,3.99l-.05-.05,8.54-7.86ZM62.04,57.11c-3.61,0-14.83,4.39-14.83,4.39,0-24.25,14.83-31.6,14.83-31.6v27.22ZM89.52,55.57s-5.55-.39-9.35-.39-9.35.9-9.35.9v-30.7s3.78-1.42,9.63-1.42,9.07,1.42,9.07,1.42v30.19ZM98.16,57.11v-27.22s14.83,7.35,14.83,31.6c0,0-11.22-4.39-14.83-4.39Z"/>
      </g>
      <text class="cls-3" transform="translate(155.63 82.23)"><tspan x="0" y="0">BridgeHub</tspan></text>
    </g>
  </g>
</svg>