<?xml version="1.0" encoding="UTF-8"?>
<svg id="_레이어_1" data-name="레이어_1" xmlns="http://www.w3.org/2000/svg" version="1.1" xmlns:xlink="http://www.w3.org/1999/xlink" viewBox="0 0 124.9 150.2">
  <!-- Generator: Adobe Illustrator 29.6.0, SVG Export Plug-In . SVG Version: 2.1.1 Build 207)  -->
  <defs>
    <style>
      .st0 {
        fill: #5f7fbf;
      }

      .st1 {
        fill: #ececed;
      }

      .st2 {
        fill: #a1a1a1;
      }

      .st3 {
        fill: #231815;
      }

      .st3, .st4 {
        font-family: Pretendard-Regular-KSCpc-EUC-H, Pretendard;
        font-size: 36px;
      }

      .st5 {
        fill: #ededec;
      }

      .st6 {
        fill: #4272b8;
      }

      .st7 {
        fill: #f5f5f4;
      }

      .st4 {
        fill: #fff;
      }

      .st8 {
        fill: #f5f5f5;
      }
    </style>
  </defs>
  <path class="st7" d="M-416.8,90.8v2.9c-1.1.3-1.1,2.7,0,2.9v2.2c0,8.6.1,17.2,0,25.8s.7,13.1-.7,15.7-4.3,1.1-5.9,1.3c-4.4.5-8.8,1-13.3.7,1.2,2.5.7,5.4.7,8.1-.4,0-1.4.1-1.5,0-.4-.6.3-7.3,0-8.8h-121.9c0,0-1.1-1-1.1-1.1v-45.3h142.1v-1.5h-142.1l.4-3h143.2Z"/>
  <path class="st1" d="M-416.8,89.3v1.5h-143.2s-.4,2.9-.4,2.9h142.1v1.5h-142.1v45.3c0,0,1,1.1,1.1,1.1h121.9c.3,1.5-.4,8.3,0,8.8s1.1,0,1.5,0c0,.2,0,.5,0,.7-.4,12-2.2,8.7-13.3,8.8-8.8.1-17.7,0-26.5,0-8.8,0-17.7,0-26.5,0-8.8,0-17.7,0-26.5,0-8.8,0-17.7,0-26.5,0s-18.6.9-22.3-.1c-2.9-.9-1.9-5.5-2-8-.3-9,0-18.2,0-27.2s0-17.2,0-25.8v-9.6c53.6-2.2,109.5,2.9,162.7,0Z"/>
  <path class="st1" d="M-416.8,96.7c-1.1-.2-1.1-2.6,0-2.9v2.9Z"/>
  <polygon class="st2" points="-415.3 98.2 -416.8 98.9 -416.8 98.2 -415.3 98.2"/>
  <path class="st0" d="M-582.5,26c1,0,2,0,2.9,0,6.9-.1,13.8,0,20.6,0s2,0,2.9,0,1.5,0,2.2,0,2,0,2.9,0c1.5,0,2.9,0,4.4,0,2.2,0,4.4,0,6.6,0s3.4,0,5.2,0c37,0,74.2-.4,111.2,0,1.5,0,2.9,0,4.4,0s1.5,0,2.2,0c1.2,0,3.6-.3,4.3.1,2,1.2.7,10.8.8,13.5s.7,3.5.8,5.5c.2,8.8.1,17.7,0,26.5s.7,12.7-.1,15.7-3.8,1.9-5.7,2c-53.3,2.9-109.2-2.2-162.7,0h-5.2c-.1-.1-1.5-2.4-1.5-2.5-.5-4.3.1-10.5,0-15.1-.1-8.8,0-17.7,0-26.5,0-6.4,0-12.8,0-19.2,1.2,0,2.5,0,3.7,0ZM-530.2,63.6c10,.4,19.7-3.1,17.5-14.9-1.6-8.9-15-8.9-21.9-7.2v36.1h4.4v-14ZM-501.5,77.5v-12.9c3.1-2,7.6-1.1,11.3-2.6,5.7-2.3,8-10.2,5.4-15.6-.8-1.7-5.9-5.7-7.6-5.7h-13.3c0,0-1.1,1-1.1,1.1v35.7h5.2ZM-455.1,40.7h-26.1c-3.8,6.8,5.9,3.9,9.9,4.4v31.3c0,1.3,4.1,1.2,5.2,1.1v-31.3c0-1.9,9.3-.9,11.1-1.1v-4.4Z"/>
  <path class="st7" d="M-528.8-52.8c8.8-.1,17.7,0,26.5,0s1.1,0,1.5,0c1.5,0,2.9,0,4.4,0,4.9,0,9.8,0,14.7,0s2,0,2.9,0,2,0,2.9,0c4.1,0,9.1-.7,12.8.8s11,9.8,13.7,12.4,2.6,5,5.9,5.9l19.9,19.9c.3,1.3,4.5,5.6,5.9,5.9,1.2,8.7.8,17.7.7,26.5,0,1,0,2,0,2.9s0,.5,0,1.5,0,2,0,2.9c-.7,0-1.5,0-2.2,0,.8-2.4-5.5-2.2-4.4,0-37-.4-74.2,0-111.2,0-.9-1.2-4.2-1.2-5.2,0-2.2,0-4.4,0-6.6,0,.8-2.4-5.5-2.2-4.4,0-1,0-2,0-2.9,0,.6-2.3-2.9-2.2-2.2,0-1,0-2,0-2.9,0,.3-1.9-1.9-1.4-2-3.4s.6-2.8.5-4.3c0-17.5-.9-35.3-.8-52.7,0,0,.8-.8.8-1.8,0-3.3-1.1-14,1.5-15.5s3.3-1.1,3.6-1.1c8.5-.2,17.9.1,26.5,0Z"/>
  <path class="st1" d="M-416.8,23.1c0-.9,0-.9,0-1.5v1.5Z"/>
  <path class="st1" d="M-561.2-34.4c-.2,17.4.7,35.2.8,52.7,0,1.5-.6,3.1-.5,4.3.1,2,2.3,1.5,2,3.4-6.9,0-13.8-.1-20.6,0v-7.4c0-8.8,0-17.7,0-26.5,0-7-.7-15.9,0-22.5s1.2-2.5,1.5-4c5.6.2,11.3-.1,16.9,0Z"/>
  <path class="st1" d="M-501.5,77.5h-5.2v-35.7c0,0,1-1.1,1.1-1.1h13.3c1.7,0,6.7,4,7.6,5.7,2.6,5.4.3,13.3-5.4,15.6-3.8,1.5-8.2.7-11.3,2.6v12.9ZM-501.5,59.1c17.1,2.8,17-18.1,0-14v14Z"/>
  <path class="st7" d="M-530.2,63.6v14h-4.4v-36.1c6.9-1.7,20.3-1.7,21.9,7.2,2.2,11.9-7.5,15.4-17.5,14.9ZM-530.2,59.1c5.3.8,12.9-.4,13.2-7.1.4-8.7-13.2-8.9-13.2-6.6v13.6Z"/>
  <path class="st7" d="M-455.1,40.7v4.4c-1.8.2-11-.8-11,1.1v31.3c-1,.1-5.2.2-5.2-1.1v-31.3c-4.1-.6-13.7,2.4-9.9-4.4h26.1Z"/>
  <path class="st1" d="M-550.9,26c-1-2.2,5.2-2.4,4.4,0-1.5,0-2.9,0-4.4,0Z"/>
  <path class="st1" d="M-423.4,26c-1-2.2,5.2-2.4,4.4,0-1.5,0-2.9,0-4.4,0Z"/>
  <path class="st1" d="M-534.6,26c-1.7,0-3.4,0-5.2,0,.9-1.2,4.2-1.2,5.2,0Z"/>
  <path class="st1" d="M-556,26c-.6-2.2,2.8-2.3,2.2,0-.7,0-1.5,0-2.2,0Z"/>
  <path class="st0" d="M-501.5,59.1v-14c17-4.1,17.1,16.8,0,14Z"/>
  <path class="st0" d="M-530.2,59.1v-13.6c0-2.3,13.6-2.1,13.2,6.6-.3,6.6-7.9,7.9-13.2,7.1Z"/>
  <image width="672" height="759" transform="translate(159.2 -19.5)" xlink:href="ico-file-doc-1.png"/>
  <g>
    <rect class="st1" x="7.7" y="14.9" width="98.2" height="133.2" rx="3.2" ry="3.2"/>
    <path class="st8" d="M94.7,2.1H21.2c-1.2,0-2.2,1-2.2,2.2v128.8c0,1.2,1,2.2,2.2,2.2h93.8c1.2,0,2.2-1,2.2-2.2V24.4L94.7,2.1Z"/>
    <path class="st5" d="M117.2,24.4L94.7,2.1v19.6c0,1.5,1.2,2.6,2.6,2.6h19.9Z"/>
  </g>
  <rect class="st6" x="2.5" y="53.7" width="119.9" height="42.7" rx="3" ry="3"/>
  <text class="st4" transform="translate(24.5 88.3)"><tspan x="0" y="0">DOC</tspan></text>
  <text class="st3" transform="translate(-127.6 -80.2)"><tspan x="0" y="0">doc,docx,txt,zip,rar</tspan></text>
</svg>