<?xml version="1.0" encoding="UTF-8"?>
<svg id="_레이어_1" data-name="레이어_1" xmlns="http://www.w3.org/2000/svg" version="1.1" viewBox="0 0 48 48">
  <!-- Generator: Adobe Illustrator 29.5.1, SVG Export Plug-In . SVG Version: 2.1.0 Build 141)  -->
  <defs>
    <style>
      .st0 {
        fill-opacity: 0;
      }
    </style>
  </defs>
  <g id="_레이어_2" data-name="레이어_2">
    <g id="_레이어_1-2" data-name="레이어_1-2">
      <rect class="st0" width="48" height="48"/>
      <g id="icomoon">
        <path d="M17,43.5c-.2,0-.4,0-.5,0-.6-.2-1-.8-1-1.4v-13c0-.4.2-.8.5-1.1l7-6-9.7,5.7c-.5.3-1.1.3-1.5,0l-6.7-4h0,0c-.9-.5-2.5-1.6-2.5-3,0-1.3.8-2.5,2-2.9L43.6,4.7c.5-.2,1.1,0,1.5.3.4.4.5,1,.3,1.6l-12.2,32c-.2.7-.7,1.3-1.3,1.7,0,0-.2.1-.3.2-1.1.5-2.5.3-3.4-.5l-4.5-3.1-5.6,6.2c-.3.3-.7.5-1.1.5ZM18.5,29.7v8.4l3.8-4.3c.5-.6,1.4-.7,2-.2l5.6,3.9h.2c0,.2.1.2.2.2,0,0,0-.1.1-.2l11.1-29L5.7,20.4c.2.1.3.3.5.4h.2c0,0,6.2,3.8,6.2,3.8l23.7-13.9c.7-.5,1.6-.3,2.1.3.5.7.3,1.6-.3,2.1l-19.5,16.6Z"/>
      </g>
    </g>
  </g>
</svg>