<svg width="16" height="16" viewBox="0 0 16 16" fill="none" xmlns="http://www.w3.org/2000/svg">
<path d="M7.33397 8.00011C7.33396 8.3683 7.63242 8.66679 8.00061 8.66681C8.3688 8.66682 8.66729 8.36835 8.6673 8.00016C8.66732 7.63197 8.36885 7.33349 8.00066 7.33347C7.63247 7.33346 7.33398 7.63192 7.33397 8.00011Z" stroke="#020617" stroke-width="1.25" stroke-linecap="round" stroke-linejoin="round"/>
<path d="M7.3338 12.6666C7.33379 13.0348 7.63226 13.3333 8.00045 13.3333C8.36864 13.3333 8.66712 13.0349 8.66714 12.6667C8.66715 12.2985 8.36868 12 8.00049 12C7.6323 12 7.33382 12.2984 7.3338 12.6666Z" stroke="#020617" stroke-width="1.25" stroke-linecap="round" stroke-linejoin="round"/>
<path d="M7.33414 3.33361C7.33412 3.7018 7.63259 4.00029 8.00078 4.0003C8.36897 4.00031 8.66746 3.70185 8.66747 3.33366C8.66748 2.96547 8.36902 2.66698 8.00083 2.66697C7.63264 2.66695 7.33415 2.96542 7.33414 3.33361Z" stroke="#020617" stroke-width="1.25" stroke-linecap="round" stroke-linejoin="round"/>
</svg>
