<?xml version="1.0" encoding="UTF-8"?>
<svg id="_레이어_2" data-name="레이어 2" xmlns="http://www.w3.org/2000/svg" viewBox="0 0 265.52 267">
  <defs>
    <style>
      .cls-1 {
        fill: #133464;
      }

      .cls-2 {
        fill: #2564a1;
      }
    </style>
  </defs>
  <g id="_레이어_1-2" data-name="레이어 1">
    <g>
      <rect class="cls-1" width="265.52" height="267" rx="29.32" ry="29.32"/>
      <g>
        <path class="cls-2" d="M68.75,184.76c-1.71,0-3.41-.73-4.6-2.15-2.13-2.54-1.78-6.34.76-8.47.37-.31,9.24-7.63,23.41-7.63,7.17,0,10.49,1.91,13.52,4.04,1.8,1.27,3.1,2.18,8.41,2.18,6.11,0,8.61-1.32,11.51-2.84,2.86-1.51,6.42-3.38,12.3-3.38,6.66,0,11.13,2.29,14.72,4.13,2.61,1.34,4.17,2.09,5.92,2.09,1.63,0,3.05-.65,5.62-1.89,3.77-1.83,8.94-4.33,17.2-4.33,14.24,0,22.85,7.39,23.21,7.71,2.49,2.18,2.75,5.97.56,8.47-2.18,2.49-5.97,2.75-8.47.56-.19-.16-5.76-4.74-15.31-4.74-5.51,0-8.65,1.52-11.97,3.13-2.99,1.45-6.39,3.09-10.85,3.09-4.73,0-8.27-1.81-11.39-3.41-2.94-1.51-5.48-2.81-9.25-2.81-2.92,0-4.34.75-6.71,2-3.57,1.88-8.02,4.22-17.1,4.22-8.4,0-12.03-2.06-15.3-4.36-1.71-1.2-2.65-1.86-6.62-1.86-9.63,0-15.49,4.65-15.74,4.85-1.12.94-2.48,1.4-3.83,1.4Z"/>
        <path class="cls-2" d="M84.67,207.89c-1.29,0-2.56-.65-3.46-1.92-1.6-2.26-1.34-5.65.57-7.56.28-.28,6.95-6.8,17.59-6.8,5.39,0,7.88,1.71,10.16,3.61,1.35,1.13,2.33,1.94,6.32,1.94,4.59,0,6.47-1.18,8.64-2.53,2.15-1.34,4.82-3.01,9.24-3.01,5,0,8.36,2.04,11.06,3.68,1.96,1.19,3.13,1.87,4.45,1.87,1.22,0,2.29-.58,4.22-1.69,2.83-1.63,6.72-3.86,12.92-3.86,10.7,0,17.17,6.59,17.44,6.87,1.87,1.95,2.06,5.33.42,7.55-1.64,2.22-4.49,2.45-6.36.5-.14-.14-4.33-4.23-11.5-4.23-4.14,0-6.5,1.36-8.99,2.79-2.25,1.29-4.8,2.76-8.15,2.76-3.55,0-6.21-1.62-8.56-3.04-2.21-1.34-4.12-2.51-6.95-2.51-2.19,0-3.26.67-5.04,1.78-2.68,1.68-6.03,3.77-12.85,3.77-6.31,0-9.04-1.84-11.5-3.89-1.28-1.07-1.99-1.66-4.97-1.66-7.24,0-11.64,4.15-11.82,4.33-.84.84-1.86,1.25-2.88,1.25Z"/>
        <path class="cls-2" d="M226.22,152.87c-.46-.5-5.65-5.97-16.96-11.96,1.46-5.85,2.26-11.96,2.26-18.26,0-42.38-35.18-76.74-78.57-76.74S54.36,80.27,54.36,122.66c0,6.14.76,12.1,2.15,17.82-11.71,6.34-16.77,12.27-17.21,12.8l15.42,12.74-.1.12c.07-.08,2.83-3.11,9.25-6.87,10.77-6.32,31.86-14.71,67.89-14.71s58.63,8.64,70.04,15.08c6.69,3.78,9.72,6.8,9.8,6.88l-.08-.09,14.71-13.55ZM100.88,124.41c-6.22,0-25.56,7.56-25.56,7.56,0-41.78,25.56-54.44,25.56-54.44v46.89ZM148.21,121.74s-9.56-.67-16.11-.67-16.11,1.56-16.11,1.56v-52.89s6.51-2.44,16.59-2.44,15.63,2.44,15.63,2.44v52ZM163.1,124.41v-46.89s25.56,12.67,25.56,54.44c0,0-19.33-7.56-25.56-7.56Z"/>
      </g>
    </g>
  </g>
</svg>